<svg xmlns="http://www.w3.org/2000/svg" viewBox="0 0 320 60" fill="none">
  <!-- "CW" Icon Mark -->
  <g id="icon-mark">
    <!-- C shape -->
    <path d="M22 30C22 20.6 28.6 14 38 14C41.8 14 45.2 15.2 47.8 17.2L44.6 21.4C42.8 20 40.6 19.2 38 19.2C31.6 19.2 27.4 23.8 27.4 30C27.4 36.2 31.6 40.8 38 40.8C40.6 40.8 42.8 40 44.6 38.6L47.8 42.8C45.2 44.8 41.8 46 38 46C28.6 46 22 39.4 22 30Z" fill="#0078D4"/>
    
    <!-- W shape -->
    <path d="M52 14.6H57.2L62.4 31.4L67.8 14.6H72.2L77.6 31.4L82.8 14.6H88L80.4 45.4H75.6L70 28.2L64.4 45.4H59.6L52 14.6Z" fill="#0078D4"/>
  </g>
  
  <!-- Company Name -->
  <g id="company-name">
    <!-- "ContextWorks" -->
    <text x="100" y="30" font-family="-apple-system, BlinkMacSystemFont, 'Segoe UI', Roboto, sans-serif" font-size="20" font-weight="700" fill="#1a1a1a">
      ContextWorks
    </text>
    
    <!-- "Digital" -->
    <text x="100" y="47" font-family="-apple-system, BlinkMacSystemFont, 'Segoe UI', Roboto, sans-serif" font-size="14" font-weight="500" fill="#0078D4">
      Digital
    </text>
  </g>
  
  <!-- Subtle accent line -->
  <line x1="94" y1="15" x2="94" y2="50" stroke="#0078D4" stroke-width="2" opacity="0.3"/>
</svg>
