<svg xmlns="http://www.w3.org/2000/svg" viewBox="0 0 500 500"><defs><style>.cls-1{fill:#2563eb;opacity:0.1;}.cls-2{fill:#2563eb;}.cls-3{fill:#0f172a;}.cls-4{fill:#fff;}</style></defs><g id="freepik--background-simple--inject-2"><path class="cls-1" d="M89.35,129.21c22.83-30.5,59.17-45.33,98.35-45.33s75.52,14.83,98.35,45.33,37.35,71.84,12.5,107.67-62.52,60.5-115.85,79.83-89.18,36.5-123.35,63.33-52.52,63.67-42.52,97.83c0,0-36.17-16.5-71.35-47s-52.52-71.84-27.67-107.67,62.52-60.5,115.85-79.83,89.18-36.5,123.35-63.33S179.52,117.38,169.52,83.21c0,0,36.17,16.5,71.35,47s52.52,71.84,27.67,107.67-62.52,60.5-115.85,79.83S63.51,354.21,29.35,381.04-23.17,444.71-13.17,478.88" transform="translate(-76 -5.9)"/></g><g id="freepik--Shadow--inject-2"><ellipse class="cls-1" cx="250" cy="435" rx="193.89" ry="11.32"/></g><g id="freepik--healthcare-technology--inject-2"><rect class="cls-4" x="150" y="120" width="200" height="250" rx="12" style="fill:#fff;stroke:#0f172a;stroke-miterlimit:10;stroke-width:2px"/><circle class="cls-2" cx="250" cy="170" r="25"/><path class="cls-3" d="M250,180 l-8,-15 h6 v-10 h4 v10 h6 z" style="fill:#fff"/><rect class="cls-4" x="170" y="220" width="160" height="30" rx="4" style="fill:#e6e6e6;stroke:#0f172a;stroke-miterlimit:10;stroke-width:1px"/><rect class="cls-4" x="170" y="265" width="160" height="30" rx="4" style="fill:#e6e6e6;stroke:#0f172a;stroke-miterlimit:10;stroke-width:1px"/><rect class="cls-4" x="170" y="310" width="160" height="30" rx="4" style="fill:#e6e6e6;stroke:#0f172a;stroke-miterlimit:10;stroke-width:1px"/><rect class="cls-2" x="178" y="228" width="80" height="14" rx="2"/><rect class="cls-2" x="178" y="273" width="120" height="14" rx="2"/><rect class="cls-2" x="178" y="318" width="60" height="14" rx="2"/><circle class="cls-2" cx="100" cy="240" r="8"/><line class="cls-3" x1="100" y1="248" x2="100" y2="268" style="stroke:#0f172a;stroke-miterlimit:10;stroke-width:2px"/><line class="cls-3" x1="100" y1="255" x2="90" y2="265" style="stroke:#0f172a;stroke-miterlimit:10;stroke-width:2px"/><line class="cls-3" x1="100" y1="255" x2="110" y2="265" style="stroke:#0f172a;stroke-miterlimit:10;stroke-width:2px"/><line class="cls-3" x1="93" y1="268" x2="93" y2="280" style="stroke:#0f172a;stroke-miterlimit:10;stroke-width:2px"/><line class="cls-3" x1="107" y1="268" x2="107" y2="280" style="stroke:#0f172a;stroke-miterlimit:10;stroke-width:2px"/><circle class="cls-2" cx="400" cy="240" r="8"/><line class="cls-3" x1="400" y1="248" x2="400" y2="268" style="stroke:#0f172a;stroke-miterlimit:10;stroke-width:2px"/><line class="cls-3" x1="400" y1="255" x2="390" y2="265" style="stroke:#0f172a;stroke-miterlimit:10;stroke-width:2px"/><line class="cls-3" x1="400" y1="255" x2="410" y2="265" style="stroke:#0f172a;stroke-miterlimit:10;stroke-width:2px"/><line class="cls-3" x1="393" y1="268" x2="393" y2="280" style="stroke:#0f172a;stroke-miterlimit:10;stroke-width:2px"/><line class="cls-3" x1="407" y1="268" x2="407" y2="280" style="stroke:#0f172a;stroke-miterlimit:10;stroke-width:2px"/></g></svg>